<?xml version="1.0" encoding="utf-8"?>
<!-- Generator: Adobe Illustrator 17.0.2, SVG Export Plug-In . SVG Version: 6.00 Build 0)  -->
<!DOCTYPE svg PUBLIC "-//W3C//DTD SVG 1.1//EN" "http://www.w3.org/Graphics/SVG/1.1/DTD/svg11.dtd">
<svg version="1.1" id="Layer_1" xmlns="http://www.w3.org/2000/svg" xmlns:xlink="http://www.w3.org/1999/xlink" x="0px" y="0px"
	 width="343.245px" height="343.357px" viewBox="0 0 343.245 343.357" enable-background="new 0 0 343.245 343.357"
	 xml:space="preserve">
<path d="M171.623,0L0,171.873l66.505,66.755h85.774l1.45-5.428c0,0,0.896-6.572,12.789-6.572h2.842c0-9,0-19.258,0-30.072
	c0-11.045,0-20.928,0-29.928h9c0,9,0,18.882,0,29.928c0,10.814,0,21.072,0,30.072h-9v5h16l0,0c0,0,0.094,0,0.194,0
	c2.52,0,4.583,1.769,4.583,4.288c0,1.239-0.559,2.282-1.36,3.104c-0.281,0.379-0.465,0.835-0.465,1.344
	c0,0.509,0.138,0.983,0.419,1.363c0.4,0.411,0.717,0.884,0.941,1.422c0.021,0.051,0.026,0.102,0.045,0.154
	c0.083,0.222,0.16,0.443,0.207,0.68c0.06,0.293,0.091,0.596,0.091,0.907s-0.032,0.614-0.092,0.908
	c-0.048,0.236-0.127,0.46-0.21,0.682c-0.019,0.052-0.028,0.108-0.049,0.158c-0.223,0.538-0.548,1.021-0.949,1.432
	c-0.281,0.379-0.435,0.873-0.435,1.382c0,0.509,0.154,1.002,0.435,1.382c0.4,0.411,0.725,0.894,0.948,1.432
	c0.021,0.051,0.03,0.107,0.049,0.158c0.083,0.222,0.162,0.445,0.209,0.682c0.06,0.293,0.092,0.596,0.092,0.907
	c0,0.311-0.032,0.613-0.092,0.907c-0.048,0.236-0.127,0.457-0.209,0.679c-0.019,0.052-0.028,0.102-0.049,0.153
	c-0.223,0.538-0.548,1.009-0.948,1.419c-0.281,0.379-0.435,0.849-0.435,1.357c0,0.509,0.154,0.954,0.435,1.333
	c0.801,0.822,1.299,2.095,1.299,3.333c0,2.52-2.042,4.435-4.562,4.435c-0.1,0-0.197,0-0.295,0h-6.922h-9.348l-7.459-0.05
	c-0.091,0-0.325,0.05-0.415,0.05H95.779l75.843,75.73l171.623-171.679L171.623,0z M172.986,55.127c2.525,0,4.572,2.047,4.572,4.571
	s-2.047,4.571-4.572,4.571c-2.525,0-4.571-2.047-4.571-4.571S170.462,55.127,172.986,55.127z M177.729,162.627
	c-1.515,0-3.038,0-4.571,0s-3.057,0-4.572,0c-49.002,0-88,0-88,0c0-52,41.446-92.571,92.571-92.571s92.571,40.571,92.571,92.571
	C265.729,162.627,226.731,162.627,177.729,162.627z M210.917,276.921c-2.495,3.691-6.019,6.615-10.178,8.375
	c-2.771,1.173-5.827,1.812-9.01,1.812c-4.777,0.002-9.254-1.478-12.943-3.973c-3.691-2.495-6.62-5.804-8.38-9.964
	c-0.101-0.238-0.192-0.545-0.285-0.545h10.332c1.486,2,3.498,3.452,5.827,4.437c1.672,0.707,3.502,1.043,5.448,1.044
	c2.915-0.002,5.584-0.941,7.824-2.451c2.237-1.51,4.018-3.688,5.077-6.195c0.707-1.672,1.098-3.518,1.098-5.464l0,0
	c0-2.525,2.047-4.579,4.571-4.579s4.571,2.041,4.571,4.565C214.874,268.762,213.411,273.233,210.917,276.921z"/>
</svg>
